<svg id="Layer_1" data-name="Layer 1" xmlns="http://www.w3.org/2000/svg" viewBox="0 0 500 500"><defs><style>.cls-1{fill:#fa0f00;}.cls-2{fill:#fff;}</style></defs><title>adobe</title><g id="Experience_Cloud" data-name="Experience Cloud"><path id="_25" data-name=" 25" class="cls-1" d="M0,78.13A78.13,78.13,0,0,1,78.13,0H421.88A78.13,78.13,0,0,1,500,78.13V421.88A78.13,78.13,0,0,1,421.88,500H78.13A78.13,78.13,0,0,1,0,421.88Z"/><path id="_13" data-name=" 13" class="cls-1" d="M78.13,0H421.88A78.13,78.13,0,0,1,500,78.13V421.88A78.12,78.12,0,0,1,421.88,500H78.13A78.12,78.12,0,0,1,0,421.88V78.13A78.13,78.13,0,0,1,78.13,0Z"/><path id="_26" data-name=" 26" class="cls-2" d="M289.51,113,409.68,387H324.41L250.06,217.48,204.75,320.82h53.12l29,66.19H90.32L210.49,113Z"/></g></svg>